<mxfile host="app.diagrams.net" modified="2023-04-26T06:39:03.685Z" agent="Mozilla/5.0 (Macintosh; Intel Mac OS X 10_15_7) AppleWebKit/537.36 (KHTML, like Gecko) Chrome/105.0.0.0 Safari/537.36" etag="FEj8UOaYZWKZenLnAcDB" version="21.2.2" type="github">
  <diagram name="第 1 页" id="0TylZSjd6-EgJ9BiYOC2">
    <mxGraphModel dx="954" dy="591" grid="1" gridSize="10" guides="1" tooltips="1" connect="1" arrows="1" fold="1" page="1" pageScale="1" pageWidth="827" pageHeight="1169" math="0" shadow="0">
      <root>
        <mxCell id="0" />
        <mxCell id="1" parent="0" />
        <mxCell id="la2jrpsX6zTOS8XwfTs5-2" value="" style="edgeStyle=orthogonalEdgeStyle;rounded=0;orthogonalLoop=1;jettySize=auto;html=1;" edge="1" parent="1" source="0qr7aGGoZXgPxGPQXT-R-1" target="la2jrpsX6zTOS8XwfTs5-1">
          <mxGeometry relative="1" as="geometry" />
        </mxCell>
        <mxCell id="0qr7aGGoZXgPxGPQXT-R-1" value="" style="rounded=0;whiteSpace=wrap;html=1;" parent="1" vertex="1">
          <mxGeometry x="190" y="90" width="120" height="60" as="geometry" />
        </mxCell>
        <mxCell id="la2jrpsX6zTOS8XwfTs5-4" value="" style="edgeStyle=orthogonalEdgeStyle;rounded=0;orthogonalLoop=1;jettySize=auto;html=1;" edge="1" parent="1" source="la2jrpsX6zTOS8XwfTs5-1" target="la2jrpsX6zTOS8XwfTs5-3">
          <mxGeometry relative="1" as="geometry" />
        </mxCell>
        <mxCell id="la2jrpsX6zTOS8XwfTs5-1" value="" style="rounded=0;whiteSpace=wrap;html=1;" vertex="1" parent="1">
          <mxGeometry x="190" y="230" width="120" height="60" as="geometry" />
        </mxCell>
        <mxCell id="la2jrpsX6zTOS8XwfTs5-6" value="" style="edgeStyle=orthogonalEdgeStyle;rounded=0;orthogonalLoop=1;jettySize=auto;html=1;" edge="1" parent="1" source="la2jrpsX6zTOS8XwfTs5-3" target="la2jrpsX6zTOS8XwfTs5-5">
          <mxGeometry relative="1" as="geometry" />
        </mxCell>
        <mxCell id="la2jrpsX6zTOS8XwfTs5-3" value="" style="rhombus;whiteSpace=wrap;html=1;rounded=0;" vertex="1" parent="1">
          <mxGeometry x="410" y="220" width="80" height="80" as="geometry" />
        </mxCell>
        <mxCell id="la2jrpsX6zTOS8XwfTs5-5" value="" style="whiteSpace=wrap;html=1;rounded=0;" vertex="1" parent="1">
          <mxGeometry x="390" y="70" width="120" height="60" as="geometry" />
        </mxCell>
      </root>
    </mxGraphModel>
  </diagram>
</mxfile>
